{"title":"London has Fallen(2016)MPEG-4[DaScubaDude]","uid":15841451,"size":1076174343,"categoryP":"video","categoryS":"movies","magnet":"?xt=urn:btih:db02ad28b0f42b1cbecdb01ab11bd57a73bae95b&amp;dn=London+has+Fallen%282016%29MPEG-4%5BDaScubaDude%5D&amp;tr=udp%3A%2F%2Ftracker.leechers-paradise.org%3A6969&amp;tr=udp%3A%2F%2Fzer0day.ch%3A1337&amp;tr=udp%3A%2F%2Fopen.demonii.com%3A1337&amp;tr=udp%3A%2F%2Ftracker.coppersurfer.tk%3A6969&amp;tr=udp%3A%2F%2Fexodus.desync.com%3A6969","seeders":8,"leechers":6,"uploader":"dascuba","files":1,"time":1474048798,"description":"London Has Fallen (2016)\r\nR | 1h 39min | Action, Crime, Drama | 4 March 2016 (USA)\r\nIn London for the Prime Minister's funeral, Mike Banning discovers a plot to assassinate all the attending world leaders.\r\nDirector: Babak Najafi\r\nWriters: Creighton Rothenberger (based on characters created by), Katrin Benedikt (based on characters created by) | \r\nStars: Gerard Butler, Aaron Eckhart, Morgan Freeman |\r\n\r\nGeneral\r\nComplete name                            : C:UsersonebiVideosWinXVideosLondon has FallenLONDON_HAS_FALLEN_Title26.mp4\r\nFormat                                   : MPEG-4\r\nFormat profile                           : Base Media\r\nCodec ID                                 : isom (isom/iso2/avc1/mp41)\r\nFile size                                : 1.00 GiB\r\nDuration                                 : 1h 38mn\r\nOverall bit rate                         : 1 455 Kbps\r\nMovie name                               : LONDON_HAS_FALLEN\r\nGenre                                    : Drama\r\nWriting application                      : Lavf54.6.100\r\n\r\nVideo\r\nID                                       : 1\r\nFormat                                   : AVC\r\nFormat/Info                              : Advanced Video Codec\r\nFormat profile                           :   \r\nFormat settings, CABAC                   : No\r\nFormat settings, ReFrames                : 6 frames\r\nCodec ID                                 : avc1\r\nCodec ID/Info                            : Advanced Video Coding\r\nDuration                                 : 1h 38mn\r\nBit rate                                 : 1 195 Kbps\r\nWidth                                    : 720 pixels\r\nHeight                                   : 404 pixels\r\nDisplay aspect ratio                     : 16:9\r\nFrame rate mode                          : Constant\r\nFrame rate                               : 29.970 (30000/1001) fps\r\nColor space                              : YUV\r\nChroma subsampling                       : 4:2:0\r\nBit depth                                : 8 bits\r\nScan type                                : Progressive\r\nBits/(Pixel*Frame)                       : 0.137\r\nStream size                              : 843 MiB (82%)\r\n\r\nAudio\r\nID                                       : 2\r\nFormat                                   : AAC\r\nFormat/Info                              : Advanced Audio Codec\r\nFormat profile                           : LC\r\nCodec ID                                 : 40\r\nDuration                                 : 1h 38mn\r\nBit rate mode                            : Constant\r\nBit rate                                 : 253 Kbps\r\nChannel(s)                               : 2 channels\r\nChannel(s)_Original                      : 6 channels\r\nChannel positions                        : Front: L C R, Side: L R, LFE\r\nSampling rate                            : 44.1 KHz\r\nFrame rate                               : 43.066 fps (1024 spf)\r\nCompression mode                         : Lossy\r\nStream size                              : 179 MiB (17%)\r\nDefault                                  : Yes\r\nAlternate group                          : 1","torrent":{"xt":"urn:btih:db02ad28b0f42b1cbecdb01ab11bd57a73bae95b","amp;dn":"London+has+Fallen%282016%29MPEG-4%5BDaScubaDude%5D","amp;tr":["udp%3A%2F%2Ftracker.leechers-paradise.org%3A6969","udp%3A%2F%2Fzer0day.ch%3A1337","udp%3A%2F%2Fopen.demonii.com%3A1337","udp%3A%2F%2Ftracker.coppersurfer.tk%3A6969","udp%3A%2F%2Fexodus.desync.com%3A6969"],"infoHash":"db02ad28b0f42b1cbecdb01ab11bd57a73bae95b","infoHashBuffer":{"type":"Buffer","data":[219,2,173,40,176,244,43,28,190,205,176,26,177,27,213,122,115,186,233,91]},"announce":[],"urlList":[]}}